<svg width="79" height="43" viewBox="0 0 79 43" fill="none" xmlns="http://www.w3.org/2000/svg">
<g filter="url(#filter0_d_10_36)">
<path d="M9.4225 0.927999V30.016H23.0065L22.4785 34H4.8625V0.927999H9.4225ZM46.414 20.608C46.414 21.344 46.382 22.096 46.318 22.864H30.19C30.382 25.648 31.086 27.696 32.302 29.008C33.518 30.32 35.086 30.976 37.006 30.976C38.222 30.976 39.342 30.8 40.366 30.448C41.39 30.096 42.462 29.536 43.582 28.768L45.502 31.408C42.814 33.52 39.87 34.576 36.67 34.576C33.15 34.576 30.398 33.424 28.414 31.12C26.462 28.816 25.486 25.648 25.486 21.616C25.486 18.992 25.902 16.672 26.734 14.656C27.598 12.608 28.814 11.008 30.382 9.856C31.982 8.704 33.854 8.128 35.998 8.128C39.358 8.128 41.934 9.232 43.726 11.44C45.518 13.648 46.414 16.704 46.414 20.608ZM42.046 19.312C42.046 16.816 41.55 14.912 40.558 13.6C39.566 12.288 38.078 11.632 36.094 11.632C32.478 11.632 30.51 14.288 30.19 19.6H42.046V19.312ZM62.9703 8.128C66.5223 8.128 69.2743 9.312 71.2263 11.68C73.2103 14.048 74.2023 17.264 74.2023 21.328C74.2023 23.952 73.7543 26.272 72.8583 28.288C71.9623 30.272 70.6663 31.824 68.9703 32.944C67.2743 34.032 65.2583 34.576 62.9223 34.576C59.3703 34.576 56.6023 33.392 54.6183 31.024C52.6343 28.656 51.6423 25.44 51.6423 21.376C51.6423 18.752 52.0903 16.448 52.9863 14.464C53.8823 12.448 55.1783 10.896 56.8743 9.808C58.5703 8.688 60.6023 8.128 62.9703 8.128ZM62.9703 11.68C58.5863 11.68 56.3943 14.912 56.3943 21.376C56.3943 27.808 58.5703 31.024 62.9223 31.024C67.2743 31.024 69.4503 27.792 69.4503 21.328C69.4503 14.896 67.2903 11.68 62.9703 11.68Z" fill="black"/>
<path d="M9.4225 0.927999H10.4225V-0.0720005H9.4225V0.927999ZM9.4225 30.016H8.4225V31.016H9.4225V30.016ZM23.0065 30.016L23.9978 30.1474L24.1478 29.016H23.0065V30.016ZM22.4785 34V35H23.3547L23.4698 34.1314L22.4785 34ZM4.8625 34H3.8625V35H4.8625V34ZM4.8625 0.927999V-0.0720005H3.8625V0.927999H4.8625ZM8.4225 0.927999V30.016H10.4225V0.927999H8.4225ZM9.4225 31.016H23.0065V29.016H9.4225V31.016ZM22.0152 29.8846L21.4872 33.8686L23.4698 34.1314L23.9978 30.1474L22.0152 29.8846ZM22.4785 33H4.8625V35H22.4785V33ZM5.8625 34V0.927999H3.8625V34H5.8625ZM4.8625 1.928H9.4225V-0.0720005H4.8625V1.928ZM46.318 22.864V23.864H47.2381L47.3145 22.947L46.318 22.864ZM30.19 22.864V21.864H29.1187L29.1924 22.9328L30.19 22.864ZM32.302 29.008L31.5686 29.6878L31.5686 29.6878L32.302 29.008ZM43.582 28.768L44.3907 28.1798L43.8186 27.3932L43.0165 27.9433L43.582 28.768ZM45.502 31.408L46.1198 32.1943L46.8774 31.599L46.3107 30.8198L45.502 31.408ZM28.414 31.12L27.651 31.7664L27.6562 31.7725L28.414 31.12ZM26.734 14.656L25.8126 14.2673L25.8096 14.2745L26.734 14.656ZM30.382 9.856L29.7977 9.04443L29.7899 9.05012L30.382 9.856ZM43.726 11.44L42.9495 12.0702L42.9495 12.0702L43.726 11.44ZM40.558 13.6L41.3557 12.9969L41.3557 12.9969L40.558 13.6ZM30.19 19.6L29.1918 19.5399L29.1279 20.6H30.19V19.6ZM42.046 19.6V20.6H43.046V19.6H42.046ZM45.414 20.608C45.414 21.315 45.3833 22.0393 45.3215 22.781L47.3145 22.947C47.3807 22.1527 47.414 21.373 47.414 20.608H45.414ZM46.318 21.864H30.19V23.864H46.318V21.864ZM29.1924 22.9328C29.3918 25.8242 30.1314 28.1371 31.5686 29.6878L33.0354 28.3282C32.0406 27.2549 31.3722 25.4718 31.1876 22.7952L29.1924 22.9328ZM31.5686 29.6878C32.9888 31.2201 34.8305 31.976 37.006 31.976V29.976C35.3415 29.976 34.0472 29.4199 33.0354 28.3282L31.5686 29.6878ZM37.006 31.976C38.3192 31.976 39.5505 31.7858 40.6911 31.3937L40.0409 29.5023C39.1335 29.8142 38.1248 29.976 37.006 29.976V31.976ZM40.6911 31.3937C41.8187 31.0061 42.9711 30.3994 44.1475 29.5927L43.0165 27.9433C41.9529 28.6726 40.9613 29.1859 40.0409 29.5023L40.6911 31.3937ZM42.7733 29.3562L44.6933 31.9962L46.3107 30.8198L44.3907 28.1798L42.7733 29.3562ZM44.8842 30.6217C42.3595 32.6054 39.6301 33.576 36.67 33.576V35.576C40.1099 35.576 43.2685 34.4346 46.1198 32.1943L44.8842 30.6217ZM36.67 33.576C33.3902 33.576 30.9349 32.515 29.1718 30.4675L27.6562 31.7725C29.8611 34.333 32.9098 35.576 36.67 35.576V33.576ZM29.177 30.4736C27.4228 28.4031 26.486 25.4913 26.486 21.616H24.486C24.486 25.8047 25.5012 29.2289 27.651 31.7664L29.177 30.4736ZM26.486 21.616C26.486 19.0969 26.8853 16.9106 27.6584 15.0375L25.8096 14.2745C24.9187 16.4334 24.486 18.8871 24.486 21.616H26.486ZM27.6554 15.0447C28.4594 13.1388 29.5712 11.6926 30.9741 10.6619L29.7899 9.05012C28.0568 10.3234 26.7366 12.0772 25.8126 14.2673L27.6554 15.0447ZM30.9663 10.6675C32.3811 9.6489 34.0444 9.128 35.998 9.128V7.128C33.6636 7.128 31.5829 7.7591 29.7977 9.04446L30.9663 10.6675ZM35.998 9.128C39.1176 9.128 41.3828 10.1397 42.9495 12.0702L44.5025 10.8098C42.4852 8.32433 39.5984 7.128 35.998 7.128V9.128ZM42.9495 12.0702C44.5512 14.0436 45.414 16.8486 45.414 20.608H47.414C47.414 16.5594 46.4848 13.2524 44.5025 10.8098L42.9495 12.0702ZM43.046 19.312C43.046 16.705 42.5313 14.5518 41.3557 12.9969L39.7603 14.2031C40.5687 15.2722 41.046 16.927 41.046 19.312H43.046ZM41.3557 12.9969C40.1349 11.3823 38.319 10.632 36.094 10.632V12.632C37.837 12.632 38.9971 13.1937 39.7603 14.2031L41.3557 12.9969ZM36.094 10.632C34.0037 10.632 32.2948 11.4196 31.1025 13.0287C29.9525 14.5808 29.357 16.7977 29.1918 19.5399L31.1882 19.6601C31.343 17.0903 31.8915 15.3232 32.7095 14.2193C33.4853 13.1724 34.5683 12.632 36.094 12.632V10.632ZM30.19 20.6H42.046V18.6H30.19V20.6ZM43.046 19.6V19.312H41.046V19.6H43.046ZM71.2263 11.68L70.4546 12.3161L70.4597 12.3222L71.2263 11.68ZM72.8583 28.288L73.7696 28.6996L73.7721 28.6941L72.8583 28.288ZM68.9703 32.944L69.5103 33.7858L69.5213 33.7785L68.9703 32.944ZM54.6183 31.024L53.8517 31.6662L53.8517 31.6662L54.6183 31.024ZM52.9863 14.464L53.8976 14.8756L53.9001 14.8701L52.9863 14.464ZM56.8743 9.808L57.4143 10.6498L57.4253 10.6425L56.8743 9.808ZM62.9703 9.128C66.2762 9.128 68.7237 10.2162 70.4546 12.3161L71.9979 11.0439C69.8248 8.40778 66.7683 7.128 62.9703 7.128V9.128ZM70.4597 12.3222C72.2509 14.4601 73.2023 17.4239 73.2023 21.328H75.2023C75.2023 17.1041 74.1696 13.6359 71.9928 11.0378L70.4597 12.3222ZM73.2023 21.328C73.2023 23.8382 72.7739 26.0156 71.9444 27.8819L73.7721 28.6941C74.7346 26.5284 75.2023 24.0658 75.2023 21.328H73.2023ZM71.9469 27.8764C71.1229 29.701 69.9463 31.1011 68.4192 32.1095L69.5213 33.7785C71.3862 32.5469 72.8016 30.843 73.7696 28.6996L71.9469 27.8764ZM68.4303 32.1023C66.9198 33.0713 65.098 33.576 62.9223 33.576V35.576C65.4185 35.576 67.6287 34.9927 69.5102 33.7857L68.4303 32.1023ZM62.9223 33.576C59.6166 33.576 57.1491 32.4876 55.3848 30.3818L53.8517 31.6662C56.0554 34.2964 59.1239 35.576 62.9223 35.576V33.576ZM55.3848 30.3818C53.5936 28.2439 52.6423 25.2801 52.6423 21.376H50.6423C50.6423 25.5999 51.6749 29.0681 53.8517 31.6662L55.3848 30.3818ZM52.6423 21.376C52.6423 18.8653 53.0708 16.7065 53.8976 14.8756L52.0749 14.0524C51.1097 16.1895 50.6423 18.6387 50.6423 21.376H52.6423ZM53.9001 14.8701C54.7245 13.0151 55.8982 11.6222 57.4142 10.6497L56.3343 8.96631C54.4583 10.1698 53.04 11.8809 52.0724 14.0579L53.9001 14.8701ZM57.4253 10.6425C58.9322 9.64734 60.7651 9.128 62.9703 9.128V7.128C60.4394 7.128 58.2083 7.72866 56.3232 8.97354L57.4253 10.6425ZM62.9703 10.68C60.4942 10.68 58.5179 11.6152 57.2106 13.5427C55.9504 15.4008 55.3943 18.0623 55.3943 21.376H57.3943C57.3943 18.2257 57.9341 16.0392 58.8659 14.6653C59.7506 13.3608 61.0623 12.68 62.9703 12.68V10.68ZM55.3943 21.376C55.3943 24.6734 55.9463 27.3225 57.198 29.1724C58.4969 31.092 60.4612 32.024 62.9223 32.024V30.024C61.0313 30.024 59.7316 29.348 58.8545 28.0516C57.9302 26.6855 57.3943 24.5106 57.3943 21.376H55.3943ZM62.9223 32.024C65.3854 32.024 67.3498 31.0863 68.6478 29.1585C69.8984 27.301 70.4503 24.6408 70.4503 21.328H68.4503C68.4503 24.4792 67.9141 26.667 66.9887 28.0415C66.1107 29.3457 64.8111 30.024 62.9223 30.024V32.024ZM70.4503 21.328C70.4503 18.0315 69.9025 15.3837 68.6604 13.5344C67.3709 11.6145 65.4184 10.68 62.9703 10.68V12.68C64.8421 12.68 66.1296 13.3535 67.0001 14.6496C67.918 16.0163 68.4503 18.1925 68.4503 21.328H70.4503Z" fill="black"/>
</g>
<defs>
<filter id="filter0_d_10_36" x="0.862549" y="0.928009" width="77.3397" height="41.648" filterUnits="userSpaceOnUse" color-interpolation-filters="sRGB">
<feFlood flood-opacity="0" result="BackgroundImageFix"/>
<feColorMatrix in="SourceAlpha" type="matrix" values="0 0 0 0 0 0 0 0 0 0 0 0 0 0 0 0 0 0 127 0" result="hardAlpha"/>
<feOffset dy="4"/>
<feGaussianBlur stdDeviation="2"/>
<feComposite in2="hardAlpha" operator="out"/>
<feColorMatrix type="matrix" values="0 0 0 0 0 0 0 0 0 0 0 0 0 0 0 0 0 0 0.25 0"/>
<feBlend mode="normal" in2="BackgroundImageFix" result="effect1_dropShadow_10_36"/>
<feBlend mode="normal" in="SourceGraphic" in2="effect1_dropShadow_10_36" result="shape"/>
</filter>
</defs>
</svg>
